<svg xmlns="http://www.w3.org/2000/svg" xmlns:xlink="http://www.w3.org/1999/xlink" xmlns:lucid="lucid" width="940" height="1440"><g transform="translate(20 -80)" lucid:page-tab-id="0_0"><path d="M0 106c0-3.3 2.7-6 6-6h288c3.3 0 6 2.7 6 6v388c0 3.3-2.7 6-6 6H6c-3.3 0-6-2.7-6-6z" stroke="#5e5e5e" stroke-width="3" fill="#fff"/><path d="M225.13 300H73.85c-5.13 0-9.22 4.8-9.22 10.43V425c0 5.64 4.1 10.43 9.22 10.43h54.98c5.46 21.55-2.05 24.46-34.84 24.46V471H205.3v-11.1c-32.78 0-36.2-2.92-30.4-24.47h50.2c5.13 0 10.25-4.8 10.25-10.43V310.43c0-5.64-5.12-10.43-10.24-10.43z" stroke="#000" stroke-opacity="0" fill="#59b4d9"/><path d="M222.06 314.1v107.2H77.6V314.1h144.46z" stroke="#000" stroke-opacity="0" fill="#fff"/><path d="M151.7 364.54h-.32l-30.04-18.93c-.37 0-.37-.34-.37-.73 0-.35.37-.74.37-.74l30.04-18.54h1l30.03 18.92c.38 0 .38.35.38.74 0 .35 0 .74-.37.74l-29.66 18.54h-1.05M147.62 410.17h-.35l-30.05-18.93c-.35 0-.35-.35-.35-.76v-37.8c0-.4.35-.75.35-.75h1.02l30.04 18.93c.35 0 .35.35.35.75v37.8c0 .42-.35.77-.35.77h-.66M156.16 410.17h-.35c-.34 0-.34-.35-.34-.76V372c0-.4.35-.76.35-.76l30.06-18.92h1c.36 0 .36.35.36.75v37.44c0 .4-.35.75-.35.75l-30.04 18.92h-.67" stroke="#000" stroke-opacity="0" fill="#0072c6"/><use xlink:href="#a" transform="matrix(1,0,0,1,34.62581949999992,480.00000000000006) translate(94.525 14.4)"/><use xlink:href="#b" transform="matrix(1,0,0,1,34.62581949999992,480.00000000000006) translate(126.47500000000001 14.4)"/><path d="M29.63 126c0-3.3 2.68-6 6-6h228.74c3.32 0 6 2.7 6 6v157c0 3.3-2.68 6-6 6H35.63c-3.32 0-6-2.7-6-6z" stroke="#5e5e5e" stroke-width="3" fill="#fff"/><g filter="url(#c)" stroke="#fff" stroke-opacity="0"><path d="M61.76 156.26h96.48v96.48H61.76z" fill="#3b48cc"/><path d="M156.5 158v93h-93v-93h93m3.5-3.5H60v100h100v-100z" fill="#fff"/><path d="M110.58 174.5c-11.78 0-20.73 3.8-20.73 8.8v43.5c0 5.08 8.95 8.88 20.73 8.88 11.78 0 20.74-3.8 20.74-8.8v-43.5c0-5.1-8.92-8.88-20.74-8.88zm0 2.32c10.83 0 18.37 3.43 18.37 6.5 0 3.05-7.54 6.47-18.37 6.47-10.82 0-18.37-3.37-18.37-6.43 0-3.06 7.56-6.55 18.38-6.55zm0 56.53c-10.82 0-18.37-3.42-18.37-6.48v-9.18c3.4 2.8 10.17 4.64 18.38 4.64 8.26 0 14.97-1.84 18.37-4.65v9.17c0 3.06-7.54 6.48-18.37 6.48zm0-13.4c-10.82 0-18.37-3.36-18.37-6.42v-10.77c3.4 2.76 10.17 4.6 18.38 4.6 8.26 0 14.97-1.84 18.37-4.6v10.77c0 3.06-7.54 6.42-18.37 6.42zm0-14.98c-10.82 0-18.37-3.37-18.37-6.43v-11.07c3.4 2.8 10.17 4.65 18.38 4.65 8.26 0 14.97-1.84 18.37-4.65v11c0 3.07-7.54 6.5-18.37 6.5z" fill="#fff"/></g><path d="M188.14 148.9h-8.9V140h8.9zm-7.18-1.72h5.47v-5.47h-5.47zM188.14 159.25h-8.9v-8.88h8.9zm-7.18-1.7h5.47v-5.47h-5.47zM188.14 169.63h-8.9v-8.88h8.9zm-7.18-1.7h5.47v-5.48h-5.47zM188.14 180h-8.9v-8.9h8.9zm-7.18-1.7h5.47v-5.48h-5.47zM219.25 148.9h-29.62V140h29.62zm-27.94-1.72h26.26v-5.47H191.3zM219.25 159.25h-29.62v-8.88h29.62zm-27.94-1.7h26.26v-5.47H191.3zM219.25 169.63h-29.62v-8.88h29.62zm-27.94-1.7h26.26v-5.48H191.3zM219.25 180h-29.62v-8.9h29.62zm-27.94-1.7h26.26v-5.48H191.3z" stroke="#fff" stroke-opacity="0" fill="#3b48cc"/><path d="M180 140.8h38.4v38.28H180V140.8z" stroke="#fff" stroke-opacity="0" stroke-width=".4" fill="#fff" fill-opacity="0"/><use xlink:href="#d" transform="matrix(1,0,0,1,149.25163899999995,189) translate(32.098765432098766 17.77777777777778)"/><path d="M188.14 223.4h-8.9v-8.9h8.9zm-7.18-1.72h5.47v-5.47h-5.47zM188.14 233.75h-8.9v-8.88h8.9zm-7.18-1.7h5.47v-5.47h-5.47zM188.14 244.13h-8.9v-8.88h8.9zm-7.18-1.7h5.47v-5.48h-5.47zM188.14 254.5h-8.9v-8.9h8.9zm-7.18-1.7h5.47v-5.48h-5.47zM219.25 223.4h-29.62v-8.9h29.62zm-27.94-1.72h26.26v-5.47H191.3zM219.25 233.75h-29.62v-8.88h29.62zm-27.94-1.7h26.26v-5.47H191.3zM219.25 244.13h-29.62v-8.88h29.62zm-27.94-1.7h26.26v-5.48H191.3zM219.25 254.5h-29.62v-8.9h29.62zm-27.94-1.7h26.26v-5.48H191.3z" stroke="#fff" stroke-opacity="0" fill="#5e5e5e"/><path d="M180 215.3h38.4v38.28H180V215.3z" stroke="#fff" stroke-opacity="0" stroke-width=".4" fill="#fff" fill-opacity="0"/><use xlink:href="#e" transform="matrix(1,0,0,1,149.25163899999995,263.5) translate(25.925925925925927 17.77777777777778)"/><path d="M600 106c0-3.3 2.7-6 6-6h288c3.3 0 6 2.7 6 6v388c0 3.3-2.7 6-6 6H606c-3.3 0-6-2.7-6-6z" stroke="#5e5e5e" stroke-width="3" fill="#fff"/><path d="M825.13 300H673.85c-5.13 0-9.22 4.8-9.22 10.43V425c0 5.64 4.1 10.43 9.22 10.43h54.98c5.46 21.55-2.05 24.46-34.84 24.46V471H805.3v-11.1c-32.78 0-36.2-2.92-30.4-24.47h50.2c5.13 0 10.25-4.8 10.25-10.43V310.43c0-5.64-5.12-10.43-10.24-10.43z" stroke="#000" stroke-opacity="0" fill="#59b4d9"/><path d="M822.06 314.1v107.2H677.6V314.1h144.46z" stroke="#000" stroke-opacity="0" fill="#fff"/><path d="M751.7 364.54h-.32l-30.04-18.93c-.37 0-.37-.34-.37-.73 0-.35.37-.74.37-.74l30.04-18.54h1l30.03 18.92c.38 0 .38.35.38.74 0 .35 0 .74-.37.74l-29.66 18.54h-1.05M747.62 410.17h-.35l-30.05-18.93c-.35 0-.35-.35-.35-.76v-37.8c0-.4.35-.75.35-.75h1.02l30.04 18.93c.35 0 .35.35.35.75v37.8c0 .42-.35.77-.35.77h-.66M756.16 410.17h-.35c-.34 0-.34-.35-.34-.76V372c0-.4.35-.76.35-.76l30.06-18.92h1c.36 0 .36.35.36.75v37.44c0 .4-.35.75-.35.75l-30.04 18.92h-.67" stroke="#000" stroke-opacity="0" fill="#0072c6"/><use xlink:href="#a" transform="matrix(1,0,0,1,634.6258194999999,480.00000000000006) translate(94.525 14.4)"/><use xlink:href="#f" transform="matrix(1,0,0,1,634.6258194999999,480.00000000000006) translate(126.47500000000001 14.4)"/><path d="M629.63 126c0-3.3 2.68-6 6-6h228.74c3.32 0 6 2.7 6 6v157c0 3.3-2.68 6-6 6H635.63c-3.32 0-6-2.7-6-6z" stroke="#5e5e5e" stroke-width="3" fill="#fff"/><g filter="url(#c)" stroke="#fff" stroke-opacity="0"><path d="M751.02 141.76h96.47v96.48H751z" fill="#3b48cc"/><path d="M845.75 143.5v93h-93v-93h93m3.5-3.5h-100v100h100V140z" fill="#fff"/><path d="M799.83 160c-11.77 0-20.73 3.8-20.73 8.8v43.5c0 5.08 8.96 8.88 20.73 8.88 11.78 0 20.74-3.8 20.74-8.8v-43.5c0-5.1-8.92-8.88-20.74-8.88zm0 2.32c10.83 0 18.38 3.43 18.38 6.5 0 3.05-7.54 6.47-18.37 6.47-10.82 0-18.37-3.37-18.37-6.43 0-3.06 7.55-6.55 18.37-6.55zm0 56.53c-10.82 0-18.37-3.42-18.37-6.48v-9.18c3.4 2.8 10.16 4.64 18.37 4.64 8.26 0 14.97-1.84 18.38-4.65v9.17c0 3.06-7.54 6.48-18.37 6.48zm0-13.4c-10.82 0-18.37-3.36-18.37-6.42v-10.77c3.4 2.76 10.16 4.6 18.37 4.6 8.26 0 14.97-1.84 18.38-4.6v10.77c0 3.06-7.54 6.42-18.37 6.42zm0-14.98c-10.82 0-18.37-3.37-18.37-6.43v-11.07c3.4 2.8 10.16 4.65 18.37 4.65 8.26 0 14.97-1.84 18.38-4.65v11c0 3.07-7.54 6.5-18.37 6.5z" fill="#fff"/></g><path d="M688.9 148.9H680V140h8.9zm-7.2-1.72h5.48v-5.47h-5.47zM688.9 159.25H680v-8.88h8.9zm-7.2-1.7h5.48v-5.47h-5.47zM688.9 169.63H680v-8.88h8.9zm-7.2-1.7h5.48v-5.48h-5.47zM688.9 180H680v-8.9h8.9zm-7.2-1.7h5.48v-5.48h-5.47zM720 148.9h-29.63V140H720zm-27.94-1.72h26.25v-5.47h-26.24zM720 159.25h-29.63v-8.88H720zm-27.94-1.7h26.25v-5.47h-26.24zM720 169.63h-29.63v-8.88H720zm-27.94-1.7h26.25v-5.48h-26.24zM720 180h-29.63v-8.9H720zm-27.94-1.7h26.25v-5.48h-26.24z" stroke="#fff" stroke-opacity="0" fill="#5e5e5e"/><path d="M680.75 140.8h38.4v38.28h-38.4V140.8z" stroke="#fff" stroke-opacity="0" stroke-width=".4" fill="#fff" fill-opacity="0"/><use xlink:href="#d" transform="matrix(1,0,0,1,650,189) translate(32.098765432098766 17.77777777777778)"/><path d="M688.9 223.4H680v-8.9h8.9zm-7.2-1.72h5.48v-5.47h-5.47zM688.9 233.75H680v-8.88h8.9zm-7.2-1.7h5.48v-5.47h-5.47zM688.9 244.13H680v-8.88h8.9zm-7.2-1.7h5.48v-5.48h-5.47zM688.9 254.5H680v-8.9h8.9zm-7.2-1.7h5.48v-5.48h-5.47zM720 223.4h-29.63v-8.9H720zm-27.94-1.72h26.25v-5.47h-26.24zM720 233.75h-29.63v-8.88H720zm-27.94-1.7h26.25v-5.47h-26.24zM720 244.13h-29.63v-8.88H720zm-27.94-1.7h26.25v-5.48h-26.24zM720 254.5h-29.63v-8.9H720zm-27.94-1.7h26.25v-5.48h-26.24z" stroke="#fff" stroke-opacity="0" fill="#3b48cc"/><path d="M680.75 215.3h38.4v38.28h-38.4V215.3z" stroke="#fff" stroke-opacity="0" stroke-width=".4" fill="#fff" fill-opacity="0"/><use xlink:href="#e" transform="matrix(1,0,0,1,650,263.5) translate(25.925925925925927 17.77777777777778)"/><path d="M300 606c0-3.3 2.7-6 6-6h288c3.3 0 6 2.7 6 6v388c0 3.3-2.7 6-6 6H306c-3.3 0-6-2.7-6-6z" stroke="#5e5e5e" stroke-width="3" fill="#fff"/><path d="M525.13 800H373.85c-5.13 0-9.22 4.8-9.22 10.43V925c0 5.64 4.1 10.43 9.22 10.43h54.98c5.46 21.55-2.05 24.46-34.84 24.46V971H505.3v-11.1c-32.78 0-36.2-2.92-30.4-24.47h50.2c5.13 0 10.25-4.8 10.25-10.43V810.43c0-5.64-5.12-10.43-10.24-10.43z" stroke="#000" stroke-opacity="0" fill="#59b4d9"/><path d="M522.06 814.1v107.2H377.6V814.1h144.46z" stroke="#000" stroke-opacity="0" fill="#fff"/><path d="M451.7 864.54h-.32l-30.04-18.93c-.37 0-.37-.34-.37-.73 0-.35.37-.74.37-.74l30.04-18.54h1l30.03 18.92c.38 0 .38.35.38.74 0 .35 0 .74-.37.74l-29.66 18.54h-1.05M447.62 910.17h-.35l-30.05-18.93c-.35 0-.35-.35-.35-.76v-37.8c0-.4.35-.75.35-.75h1.02l30.04 18.93c.35 0 .35.35.35.75v37.8c0 .42-.35.77-.35.77h-.66M456.16 910.17h-.35c-.34 0-.34-.35-.34-.76V872c0-.4.35-.76.35-.76l30.06-18.92h1c.36 0 .36.35.36.75v37.44c0 .4-.35.75-.35.75l-30.04 18.92h-.67" stroke="#000" stroke-opacity="0" fill="#0072c6"/><use xlink:href="#a" transform="matrix(1,0,0,1,334.6258194999999,980) translate(94.525 14.4)"/><use xlink:href="#g" transform="matrix(1,0,0,1,334.6258194999999,980) translate(126.47500000000001 14.4)"/><path d="M329.63 626c0-3.3 2.68-6 6-6h228.74c3.32 0 6 2.7 6 6v157c0 3.3-2.68 6-6 6H335.63c-3.32 0-6-2.7-6-6z" stroke="#5e5e5e" stroke-width="3" fill="#fff"/><g filter="url(#c)" stroke="#fff" stroke-opacity="0"><path d="M361.76 656.26h96.48v96.48h-96.48z" fill="#3b48cc"/><path d="M456.5 658v93h-93v-93h93m3.5-3.5H360v100h100v-100z" fill="#fff"/><path d="M410.58 674.5c-11.78 0-20.73 3.8-20.73 8.8v43.5c0 5.08 8.95 8.88 20.73 8.88 11.78 0 20.74-3.8 20.74-8.8v-43.5c0-5.1-8.92-8.88-20.74-8.88zm0 2.32c10.83 0 18.37 3.43 18.37 6.5 0 3.05-7.54 6.47-18.37 6.47-10.82 0-18.37-3.37-18.37-6.43 0-3.06 7.56-6.55 18.38-6.55zm0 56.53c-10.82 0-18.37-3.42-18.37-6.48v-9.18c3.4 2.8 10.17 4.64 18.38 4.64 8.26 0 14.97-1.84 18.37-4.65v9.17c0 3.06-7.54 6.48-18.37 6.48zm0-13.4c-10.82 0-18.37-3.36-18.37-6.42v-10.77c3.4 2.76 10.17 4.6 18.38 4.6 8.26 0 14.97-1.84 18.37-4.6v10.77c0 3.06-7.54 6.42-18.37 6.42zm0-14.98c-10.82 0-18.37-3.37-18.37-6.43v-11.07c3.4 2.8 10.17 4.65 18.38 4.65 8.26 0 14.97-1.84 18.37-4.65v11c0 3.07-7.54 6.5-18.37 6.5z" fill="#fff"/></g><path d="M478.9 663.4H470v-8.9h8.9zm-7.2-1.72h5.48v-5.47h-5.47zM478.9 673.75H470v-8.88h8.9zm-7.2-1.7h5.48v-5.47h-5.47zM478.9 684.13H470v-8.88h8.9zm-7.2-1.7h5.48v-5.48h-5.47zM478.9 694.5H470v-8.9h8.9zm-7.2-1.7h5.48v-5.48h-5.47zM510 663.4h-29.63v-8.9H510zm-27.94-1.72h26.25v-5.47h-26.24zM510 673.75h-29.63v-8.88H510zm-27.94-1.7h26.25v-5.47h-26.24zM510 684.13h-29.63v-8.88H510zm-27.94-1.7h26.25v-5.48h-26.24zM510 694.5h-29.63v-8.9H510zm-27.94-1.7h26.25v-5.48h-26.24z" stroke="#fff" stroke-opacity="0" fill="#5e5e5e"/><path d="M470.75 655.3h38.4v38.28h-38.4V655.3z" stroke="#fff" stroke-opacity="0" stroke-width=".4" fill="#fff" fill-opacity="0"/><use xlink:href="#h" transform="matrix(1,0,0,1,440,703.5) translate(25.925925925925927 17.77777777777778)"/><path d="M528.9 663.4H520v-8.9h8.9zm-7.2-1.72h5.48v-5.47h-5.47zM528.9 673.75H520v-8.88h8.9zm-7.2-1.7h5.48v-5.47h-5.47zM528.9 684.13H520v-8.88h8.9zm-7.2-1.7h5.48v-5.48h-5.47zM528.9 694.5H520v-8.9h8.9zm-7.2-1.7h5.48v-5.48h-5.47zM560 663.4h-29.63v-8.9H560zm-27.94-1.72h26.25v-5.47h-26.24zM560 673.75h-29.63v-8.88H560zm-27.94-1.7h26.25v-5.47h-26.24zM560 684.13h-29.63v-8.88H560zm-27.94-1.7h26.25v-5.48h-26.24zM560 694.5h-29.63v-8.9H560zm-27.94-1.7h26.25v-5.48h-26.24z" stroke="#fff" stroke-opacity="0" fill="#5e5e5e"/><path d="M520.75 655.3h38.4v38.28h-38.4V655.3z" stroke="#fff" stroke-opacity="0" stroke-width=".4" fill="#fff" fill-opacity="0"/><use xlink:href="#e" transform="matrix(1,0,0,1,490,703.5) translate(25.925925925925927 17.77777777777778)"/><path d="M219.4 160h442.85" stroke="#5e5e5e" stroke-width="2" fill="none"/><path d="M219.4 161h-.15v-.25h-.86v-1.5h.85V159h.16" fill="#5e5e5e"/><path d="M677.5 160l-14.25 4.64v-9.28z" stroke="#5e5e5e" stroke-width="2" fill="#5e5e5e"/><path d="M679.75 234.5H236.9" stroke="#5e5e5e" stroke-width="2" fill="none"/><path d="M680 233.75h.75v1.5H680v.25h-.28v-2h.28" fill="#5e5e5e"/><path d="M221.62 234.5l14.27-4.64v9.28z" stroke="#5e5e5e" stroke-width="2" fill="#5e5e5e"/><path d="M300 606c0-3.3 2.7-6 6-6h288c3.3 0 6 2.7 6 6v388c0 3.3-2.7 6-6 6H306c-3.3 0-6-2.7-6-6z" stroke="#5e5e5e" stroke-width="3" fill="#fff"/><path d="M525.13 800H373.85c-5.13 0-9.22 4.8-9.22 10.43V925c0 5.64 4.1 10.43 9.22 10.43h54.98c5.46 21.55-2.05 24.46-34.84 24.46V971H505.3v-11.1c-32.78 0-36.2-2.92-30.4-24.47h50.2c5.13 0 10.25-4.8 10.25-10.43V810.43c0-5.64-5.12-10.43-10.24-10.43z" stroke="#000" stroke-opacity="0" fill="#59b4d9"/><path d="M522.06 814.1v107.2H377.6V814.1h144.46z" stroke="#000" stroke-opacity="0" fill="#fff"/><path d="M451.7 864.54h-.32l-30.04-18.93c-.37 0-.37-.34-.37-.73 0-.35.37-.74.37-.74l30.04-18.54h1l30.03 18.92c.38 0 .38.35.38.74 0 .35 0 .74-.37.74l-29.66 18.54h-1.05M447.62 910.17h-.35l-30.05-18.93c-.35 0-.35-.35-.35-.76v-37.8c0-.4.35-.75.35-.75h1.02l30.04 18.93c.35 0 .35.35.35.75v37.8c0 .42-.35.77-.35.77h-.66M456.16 910.17h-.35c-.34 0-.34-.35-.34-.76V872c0-.4.35-.76.35-.76l30.06-18.92h1c.36 0 .36.35.36.75v37.44c0 .4-.35.75-.35.75l-30.04 18.92h-.67" stroke="#000" stroke-opacity="0" fill="#0072c6"/><use xlink:href="#a" transform="matrix(1,0,0,1,334.6258194999999,980) translate(94.525 14.4)"/><use xlink:href="#g" transform="matrix(1,0,0,1,334.6258194999999,980) translate(126.47500000000001 14.4)"/><path d="M329.63 626c0-3.3 2.68-6 6-6h228.74c3.32 0 6 2.7 6 6v157c0 3.3-2.68 6-6 6H335.63c-3.32 0-6-2.7-6-6z" stroke="#5e5e5e" stroke-width="3" fill="#fff"/><g filter="url(#c)" stroke="#fff" stroke-opacity="0"><path d="M361.76 656.26h96.48v96.48h-96.48z" fill="#3b48cc"/><path d="M456.5 658v93h-93v-93h93m3.5-3.5H360v100h100v-100z" fill="#fff"/><path d="M410.58 674.5c-11.78 0-20.73 3.8-20.73 8.8v43.5c0 5.08 8.95 8.88 20.73 8.88 11.78 0 20.74-3.8 20.74-8.8v-43.5c0-5.1-8.92-8.88-20.74-8.88zm0 2.32c10.83 0 18.37 3.43 18.37 6.5 0 3.05-7.54 6.47-18.37 6.47-10.82 0-18.37-3.37-18.37-6.43 0-3.06 7.56-6.55 18.38-6.55zm0 56.53c-10.82 0-18.37-3.42-18.37-6.48v-9.18c3.4 2.8 10.17 4.64 18.38 4.64 8.26 0 14.97-1.84 18.37-4.65v9.17c0 3.06-7.54 6.48-18.37 6.48zm0-13.4c-10.82 0-18.37-3.36-18.37-6.42v-10.77c3.4 2.76 10.17 4.6 18.38 4.6 8.26 0 14.97-1.84 18.37-4.6v10.77c0 3.06-7.54 6.42-18.37 6.42zm0-14.98c-10.82 0-18.37-3.37-18.37-6.43v-11.07c3.4 2.8 10.17 4.65 18.38 4.65 8.26 0 14.97-1.84 18.37-4.65v11c0 3.07-7.54 6.5-18.37 6.5z" fill="#fff"/></g><path d="M478.9 663.4H470v-8.9h8.9zm-7.2-1.72h5.48v-5.47h-5.47zM478.9 673.75H470v-8.88h8.9zm-7.2-1.7h5.48v-5.47h-5.47zM478.9 684.13H470v-8.88h8.9zm-7.2-1.7h5.48v-5.48h-5.47zM478.9 694.5H470v-8.9h8.9zm-7.2-1.7h5.48v-5.48h-5.47zM510 663.4h-29.63v-8.9H510zm-27.94-1.72h26.25v-5.47h-26.24zM510 673.75h-29.63v-8.88H510zm-27.94-1.7h26.25v-5.47h-26.24zM510 684.13h-29.63v-8.88H510zm-27.94-1.7h26.25v-5.48h-26.24zM510 694.5h-29.63v-8.9H510zm-27.94-1.7h26.25v-5.48h-26.24z" stroke="#fff" stroke-opacity="0" fill="#5e5e5e"/><path d="M470.75 655.3h38.4v38.28h-38.4V655.3z" stroke="#fff" stroke-opacity="0" stroke-width=".4" fill="#fff" fill-opacity="0"/><use xlink:href="#d" transform="matrix(1,0,0,1,440,703.5) translate(32.098765432098766 17.77777777777778)"/><path d="M528.9 663.4H520v-8.9h8.9zm-7.2-1.72h5.48v-5.47h-5.47zM528.9 673.75H520v-8.88h8.9zm-7.2-1.7h5.48v-5.47h-5.47zM528.9 684.13H520v-8.88h8.9zm-7.2-1.7h5.48v-5.48h-5.47zM528.9 694.5H520v-8.9h8.9zm-7.2-1.7h5.48v-5.48h-5.47zM560 663.4h-29.63v-8.9H560zm-27.94-1.72h26.25v-5.47h-26.24zM560 673.75h-29.63v-8.88H560zm-27.94-1.7h26.25v-5.47h-26.24zM560 684.13h-29.63v-8.88H560zm-27.94-1.7h26.25v-5.48h-26.24zM560 694.5h-29.63v-8.9H560zm-27.94-1.7h26.25v-5.48h-26.24z" stroke="#fff" stroke-opacity="0" fill="#5e5e5e"/><path d="M520.75 655.3h38.4v38.28h-38.4V655.3z" stroke="#fff" stroke-opacity="0" stroke-width=".4" fill="#fff" fill-opacity="0"/><use xlink:href="#e" transform="matrix(1,0,0,1,490,703.5) translate(25.925925925925927 17.77777777777778)"/><path d="M679.75 234.5H546c-3.3 0-6 2.7-6 6V636M679.72 234.5h1.03" stroke="#5e5e5e" stroke-width="2" fill="none"/><path d="M540 651.26L535.36 637h9.28z" stroke="#5e5e5e" stroke-width="2" fill="#5e5e5e"/><path d="M300.86 1106c0-3.3 2.7-6 6-6h288c3.32 0 6 2.7 6 6v388c0 3.3-2.68 6-6 6h-288c-3.3 0-6-2.7-6-6z" stroke="#5e5e5e" stroke-width="3" fill="#fff"/><path d="M526 1300H374.7c-5.1 0-9.2 4.8-9.2 10.43V1425c0 5.64 4.1 10.43 9.2 10.43h55c5.46 21.55-2.06 24.45-34.84 24.45V1471H506.2v-11.12c-32.8 0-36.2-2.9-30.4-24.45H526c5.12 0 10.24-4.8 10.24-10.43v-114.57c0-5.64-5.12-10.43-10.25-10.43z" stroke="#000" stroke-opacity="0" fill="#59b4d9"/><path d="M522.92 1314.1v107.2H378.47v-107.2h144.45z" stroke="#000" stroke-opacity="0" fill="#fff"/><path d="M452.56 1364.54h-.3l-30.05-18.93c-.36 0-.36-.34-.36-.73 0-.35.37-.74.37-.74l30.05-18.54h1l30.03 18.92c.37 0 .37.35.37.74 0 .35 0 .74-.37.74l-29.67 18.54h-1.04M448.48 1410.17h-.35l-30.04-18.93c-.36 0-.36-.35-.36-.76v-37.8c0-.4.35-.75.35-.75h1l30.05 18.93c.35 0 .35.35.35.75v37.8c0 .42-.35.77-.35.77h-.67M457.03 1410.17h-.35c-.35 0-.35-.35-.35-.76V1372c0-.4.35-.76.35-.76l30.04-18.92h1.02c.35 0 .35.35.35.75v37.44c0 .4-.36.75-.36.75l-30.05 18.92h-.67" stroke="#000" stroke-opacity="0" fill="#0072c6"/><use xlink:href="#a" transform="matrix(1,0,0,1,335.4900274999999,1480) translate(94.525 14.4)"/><use xlink:href="#g" transform="matrix(1,0,0,1,335.4900274999999,1480) translate(126.47500000000001 14.4)"/><path d="M330.5 1126c0-3.3 2.68-6 6-6h228.74c3.3 0 6 2.7 6 6v157c0 3.3-2.7 6-6 6H336.5c-3.32 0-6-2.7-6-6z" stroke="#5e5e5e" stroke-width="3" fill="#fff"/><g filter="url(#c)" stroke="#fff" stroke-opacity="0"><path d="M362.63 1156.26h96.47v96.48h-96.47z" fill="#3b48cc"/><path d="M457.36 1158v93h-93v-93h93m3.5-3.5h-100v100h100v-100z" fill="#fff"/><path d="M411.45 1174.5c-11.78 0-20.74 3.8-20.74 8.8v43.5c0 5.08 8.97 8.88 20.75 8.88 11.77 0 20.73-3.8 20.73-8.8v-43.5c0-5.1-8.9-8.88-20.73-8.88zm0 2.32c10.82 0 18.37 3.43 18.37 6.5 0 3.05-7.55 6.47-18.37 6.47-10.83 0-18.37-3.37-18.37-6.43 0-3.06 7.54-6.55 18.37-6.55zm0 56.53c-10.83 0-18.37-3.42-18.37-6.48v-9.18c3.4 2.8 10.16 4.64 18.37 4.64 8.25 0 14.97-1.84 18.37-4.65v9.17c0 3.06-7.55 6.48-18.37 6.48zm0-13.4c-10.83 0-18.37-3.36-18.37-6.42v-10.77c3.4 2.76 10.16 4.6 18.37 4.6 8.25 0 14.97-1.84 18.37-4.6v10.77c0 3.06-7.55 6.42-18.37 6.42zm0-14.98c-10.83 0-18.37-3.37-18.37-6.43v-11.07c3.4 2.8 10.16 4.65 18.37 4.65 8.25 0 14.97-1.84 18.37-4.65v11c0 3.07-7.55 6.5-18.37 6.5z" fill="#fff"/></g><path d="M479.75 1163.4h-8.9v-8.9h8.9zm-7.18-1.72h5.47v-5.47h-5.47zM479.75 1173.75h-8.9v-8.88h8.9zm-7.18-1.7h5.47v-5.47h-5.47zM479.75 1184.13h-8.9v-8.88h8.9zm-7.18-1.7h5.47v-5.48h-5.47zM479.75 1194.5h-8.9v-8.9h8.9zm-7.18-1.7h5.47v-5.48h-5.47zM510.86 1163.4h-29.62v-8.9h29.62zm-27.93-1.72h26.25v-5.47h-26.25zM510.86 1173.75h-29.62v-8.88h29.62zm-27.93-1.7h26.25v-5.47h-26.25zM510.86 1184.13h-29.62v-8.88h29.62zm-27.93-1.7h26.25v-5.48h-26.25zM510.86 1194.5h-29.62v-8.9h29.62zm-27.93-1.7h26.25v-5.48h-26.25z" stroke="#fff" stroke-opacity="0" fill="#5e5e5e"/><path d="M471.6 1155.3H510v38.28h-38.4v-38.28z" stroke="#fff" stroke-opacity="0" stroke-width=".4" fill="#fff" fill-opacity="0"/><use xlink:href="#h" transform="matrix(1,0,0,1,440.86420799999996,1203.5) translate(25.925925925925927 17.77777777777778)"/><path d="M529.75 1163.4h-8.9v-8.9h8.9zm-7.18-1.72h5.47v-5.47h-5.47zM529.75 1173.75h-8.9v-8.88h8.9zm-7.18-1.7h5.47v-5.47h-5.47zM529.75 1184.13h-8.9v-8.88h8.9zm-7.18-1.7h5.47v-5.48h-5.47zM529.75 1194.5h-8.9v-8.9h8.9zm-7.18-1.7h5.47v-5.48h-5.47zM560.86 1163.4h-29.62v-8.9h29.62zm-27.93-1.72h26.25v-5.47h-26.25zM560.86 1173.75h-29.62v-8.88h29.62zm-27.93-1.7h26.25v-5.47h-26.25zM560.86 1184.13h-29.62v-8.88h29.62zm-27.93-1.7h26.25v-5.48h-26.25zM560.86 1194.5h-29.62v-8.9h29.62zm-27.93-1.7h26.25v-5.48h-26.25z" stroke="#fff" stroke-opacity="0" fill="#5e5e5e"/><path d="M521.6 1155.3H560v38.28h-38.4v-38.28z" stroke="#fff" stroke-opacity="0" stroke-width=".4" fill="#fff" fill-opacity="0"/><use xlink:href="#e" transform="matrix(1,0,0,1,490.86420799999996,1203.5) translate(25.925925925925927 17.77777777777778)"/><path d="M300.86 1106c0-3.3 2.7-6 6-6h288c3.32 0 6 2.7 6 6v388c0 3.3-2.68 6-6 6h-288c-3.3 0-6-2.7-6-6z" stroke="#5e5e5e" stroke-width="3" fill="#fff"/><path d="M526 1300H374.7c-5.1 0-9.2 4.8-9.2 10.43V1425c0 5.64 4.1 10.43 9.2 10.43h55c5.46 21.55-2.06 24.45-34.84 24.45V1471H506.2v-11.12c-32.8 0-36.2-2.9-30.4-24.45H526c5.12 0 10.24-4.8 10.24-10.43v-114.57c0-5.64-5.12-10.43-10.25-10.43z" stroke="#000" stroke-opacity="0" fill="#59b4d9"/><path d="M522.92 1314.1v107.2H378.47v-107.2h144.45z" stroke="#000" stroke-opacity="0" fill="#fff"/><path d="M452.56 1364.54h-.3l-30.05-18.93c-.36 0-.36-.34-.36-.73 0-.35.37-.74.37-.74l30.05-18.54h1l30.03 18.92c.37 0 .37.35.37.74 0 .35 0 .74-.37.74l-29.67 18.54h-1.04M448.48 1410.17h-.35l-30.04-18.93c-.36 0-.36-.35-.36-.76v-37.8c0-.4.35-.75.35-.75h1l30.05 18.93c.35 0 .35.35.35.75v37.8c0 .42-.35.77-.35.77h-.67M457.03 1410.17h-.35c-.35 0-.35-.35-.35-.76V1372c0-.4.35-.76.35-.76l30.04-18.92h1.02c.35 0 .35.35.35.75v37.44c0 .4-.36.75-.36.75l-30.05 18.92h-.67" stroke="#000" stroke-opacity="0" fill="#0072c6"/><use xlink:href="#a" transform="matrix(1,0,0,1,335.4900274999999,1480) translate(94.525 14.4)"/><use xlink:href="#i" transform="matrix(1,0,0,1,335.4900274999999,1480) translate(126.47500000000001 14.4)"/><path d="M330.5 1126c0-3.3 2.68-6 6-6h228.74c3.3 0 6 2.7 6 6v157c0 3.3-2.7 6-6 6H336.5c-3.32 0-6-2.7-6-6z" stroke="#5e5e5e" stroke-width="3" fill="#fff"/><g filter="url(#c)" stroke="#fff" stroke-opacity="0"><path d="M362.63 1156.26h96.47v96.48h-96.47z" fill="#5e5e5e"/><path d="M457.36 1158v93h-93v-93h93m3.5-3.5h-100v100h100v-100z" fill="#fff"/><path d="M411.45 1174.5c-11.78 0-20.74 3.8-20.74 8.8v43.5c0 5.08 8.97 8.88 20.75 8.88 11.77 0 20.73-3.8 20.73-8.8v-43.5c0-5.1-8.9-8.88-20.73-8.88zm0 2.32c10.82 0 18.37 3.43 18.37 6.5 0 3.05-7.55 6.47-18.37 6.47-10.83 0-18.37-3.37-18.37-6.43 0-3.06 7.54-6.55 18.37-6.55zm0 56.53c-10.83 0-18.37-3.42-18.37-6.48v-9.18c3.4 2.8 10.16 4.64 18.37 4.64 8.25 0 14.97-1.84 18.37-4.65v9.17c0 3.06-7.55 6.48-18.37 6.48zm0-13.4c-10.83 0-18.37-3.36-18.37-6.42v-10.77c3.4 2.76 10.16 4.6 18.37 4.6 8.25 0 14.97-1.84 18.37-4.6v10.77c0 3.06-7.55 6.42-18.37 6.42zm0-14.98c-10.83 0-18.37-3.37-18.37-6.43v-11.07c3.4 2.8 10.16 4.65 18.37 4.65 8.25 0 14.97-1.84 18.37-4.65v11c0 3.07-7.55 6.5-18.37 6.5z" fill="#fff"/></g><path d="M479.75 1163.4h-8.9v-8.9h8.9zm-7.18-1.72h5.47v-5.47h-5.47zM479.75 1173.75h-8.9v-8.88h8.9zm-7.18-1.7h5.47v-5.47h-5.47zM479.75 1184.13h-8.9v-8.88h8.9zm-7.18-1.7h5.47v-5.48h-5.47zM479.75 1194.5h-8.9v-8.9h8.9zm-7.18-1.7h5.47v-5.48h-5.47zM510.86 1163.4h-29.62v-8.9h29.62zm-27.93-1.72h26.25v-5.47h-26.25zM510.86 1173.75h-29.62v-8.88h29.62zm-27.93-1.7h26.25v-5.47h-26.25zM510.86 1184.13h-29.62v-8.88h29.62zm-27.93-1.7h26.25v-5.48h-26.25zM510.86 1194.5h-29.62v-8.9h29.62zm-27.93-1.7h26.25v-5.48h-26.25z" stroke="#fff" stroke-opacity="0" fill="#5e5e5e"/><path d="M471.6 1155.3H510v38.28h-38.4v-38.28z" stroke="#fff" stroke-opacity="0" stroke-width=".4" fill="#fff" fill-opacity="0"/><use xlink:href="#d" transform="matrix(1,0,0,1,440.86420799999996,1203.5) translate(32.098765432098766 17.77777777777778)"/><path d="M529.75 1163.4h-8.9v-8.9h8.9zm-7.18-1.72h5.47v-5.47h-5.47zM529.75 1173.75h-8.9v-8.88h8.9zm-7.18-1.7h5.47v-5.47h-5.47zM529.75 1184.13h-8.9v-8.88h8.9zm-7.18-1.7h5.47v-5.48h-5.47zM529.75 1194.5h-8.9v-8.9h8.9zm-7.18-1.7h5.47v-5.48h-5.47zM560.86 1163.4h-29.62v-8.9h29.62zm-27.93-1.72h26.25v-5.47h-26.25zM560.86 1173.75h-29.62v-8.88h29.62zm-27.93-1.7h26.25v-5.47h-26.25zM560.86 1184.13h-29.62v-8.88h29.62zm-27.93-1.7h26.25v-5.48h-26.25zM560.86 1194.5h-29.62v-8.9h29.62zm-27.93-1.7h26.25v-5.48h-26.25z" stroke="#fff" stroke-opacity="0" fill="#5e5e5e"/><path d="M521.6 1155.3H560v38.28h-38.4v-38.28z" stroke="#fff" stroke-opacity="0" stroke-width=".4" fill="#fff" fill-opacity="0"/><use xlink:href="#e" transform="matrix(1,0,0,1,490.86420799999996,1203.5) translate(25.925925925925927 17.77777777777778)"/><path d="M358 704.5h-5.7m-7.6 0h-11.4m-7.6 0h-11.4m-7.6 0h-11.4m-7.6 0h-11.4m-7.6 0h-11.4m-7.6 0h-11.4m-7.6 0h-11.4m-7.6 0H206l-3.03.82-2.15 2.15-.82 3.03v6.1m0 8.13v12.2m0 8.14v12.2m0 8.13v12.2m0 8.13v12.2m0 8.14v12.2m0 8.13v12.2m0 8.13v12.2m0 8.14v12.2m0 8.13v12.2m0 8.13v12.2m0 8.14v12.2m0 8.13v12.2m0 8.13v12.2m0 8.14v12.2m0 8.13v12.2m0 8.13v12.2m0 8.14v12.2m0 8.13v12.2m0 8.13v12.2m0 8.14v12.2m0 8.13v12.2m0 8.13v12.2m0 8.14v12.2m0 8.13v6.1l.82 3.03 2.15 2.15 3.03.82h5.66m7.55 0h11.34m7.55 0h11.3m7.56 0h11.33m7.54 0h11.32m7.55 0h11.34m7.55 0h11.3m7.56 0h5.67" stroke="#5e5e5e" stroke-width="4" fill="none"/><path d="M360 706.5h-2.05v-4H360" fill="#5e5e5e"/><path d="M354.4 1204.5l-14.27 4.64v-9.28z" stroke="#5e5e5e" stroke-width="4" fill="#5e5e5e"/><path d="M219.4 160H484c3.3 0 6 2.7 6 6v63.5c-2.76 0-5 2.24-5 5s2.24 5 5 5V636" stroke="#5e5e5e" stroke-width="2" fill="none"/><path d="M219.4 161h-.15v-.25h-.86v-1.5h.85V159h.16" fill="#5e5e5e"/><path d="M490 651.26L485.36 637h9.28z" stroke="#5e5e5e" stroke-width="2" fill="#5e5e5e"/><defs><path d="M137 0h-34L2-248h35l83 218 83-218h36" id="j"/><path d="M240 0l2-218c-23 76-54 145-80 218h-23L58-218 59 0H30v-248h44l77 211c21-75 51-140 76-211h43V0h-30" id="k"/><g id="a"><use transform="matrix(0.05,0,0,0.05,0,0)" xlink:href="#j"/><use transform="matrix(0.05,0,0,0.05,12,0)" xlink:href="#k"/></g><path d="M27 0v-27h64v-190l-56 39v-29l58-41h29v221h61V0H27" id="l"/><use transform="matrix(0.05,0,0,0.05,0,0)" xlink:href="#l" id="b"/><filter id="c" filterUnits="objectBoundingBox" x="-.07" y="-.05" width="1.14" height="1.14"><feOffset result="offOut" in="SourceAlpha" dy="2"/><feGaussianBlur result="blurOut" in="offOut" stdDeviation="3.5"/><feColorMatrix result="colorOut" in="blurOut" values="0 0 0 0 0 0 0 0 0 0 0 0 0 0 0 0 0 0 0.5019607843137255 0"/><feBlend in="SourceGraphic" in2="colorOut"/></filter><path fill="#333" d="M59-47c-2 24 18 29 38 22v24C64 9 27 4 27-40v-127H5v-23h24l9-43h21v43h35v23H59v120" id="m"/><path fill="#333" d="M100-194c63 0 86 42 84 106H49c0 40 14 67 53 68 26 1 43-12 49-29l28 8c-11 28-37 45-77 45C44 4 14-33 15-96c1-61 26-98 85-98zm52 81c6-60-76-77-97-28-3 7-6 17-6 28h103" id="n"/><path fill="#333" d="M135-143c-3-34-86-38-87 0 15 53 115 12 119 90S17 21 10-45l28-5c4 36 97 45 98 0-10-56-113-15-118-90-4-57 82-63 122-42 12 7 21 19 24 35" id="o"/><g id="d"><use transform="matrix(0.06172839506172839,0,0,0.06172839506172839,0,0)" xlink:href="#m"/><use transform="matrix(0.06172839506172839,0,0,0.06172839506172839,6.172839506172839,0)" xlink:href="#n"/><use transform="matrix(0.06172839506172839,0,0,0.06172839506172839,18.51851851851852,0)" xlink:href="#o"/><use transform="matrix(0.06172839506172839,0,0,0.06172839506172839,29.62962962962963,0)" xlink:href="#m"/></g><path fill="#333" d="M101-251c82-7 93 87 43 132L82-64C71-53 59-42 53-27h129V0H18c2-99 128-94 128-182 0-28-16-43-45-43s-46 15-49 41l-32-3c6-41 34-60 81-64" id="p"/><g id="e"><use transform="matrix(0.06172839506172839,0,0,0.06172839506172839,0,0)" xlink:href="#m"/><use transform="matrix(0.06172839506172839,0,0,0.06172839506172839,6.172839506172839,0)" xlink:href="#n"/><use transform="matrix(0.06172839506172839,0,0,0.06172839506172839,18.51851851851852,0)" xlink:href="#o"/><use transform="matrix(0.06172839506172839,0,0,0.06172839506172839,29.62962962962963,0)" xlink:href="#m"/><use transform="matrix(0.06172839506172839,0,0,0.06172839506172839,35.80246913580247,0)" xlink:href="#p"/></g><path d="M101-251c82-7 93 87 43 132L82-64C71-53 59-42 53-27h129V0H18c2-99 128-94 128-182 0-28-16-43-45-43s-46 15-49 41l-32-3c6-41 34-60 81-64" id="q"/><use transform="matrix(0.05,0,0,0.05,0,0)" xlink:href="#q" id="f"/><path d="M126-127c33 6 58 20 58 59 0 88-139 92-164 29-3-8-5-16-6-25l32-3c6 27 21 44 54 44 32 0 52-15 52-46 0-38-36-46-79-43v-28c39 1 72-4 72-42 0-27-17-43-46-43-28 0-47 15-49 41l-32-3c6-42 35-63 81-64 48-1 79 21 79 65 0 36-21 52-52 59" id="r"/><use transform="matrix(0.05,0,0,0.05,0,0)" xlink:href="#r" id="g"/><path fill="#333" d="M27 0v-27h64v-190l-56 39v-29l58-41h29v221h61V0H27" id="s"/><g id="h"><use transform="matrix(0.06172839506172839,0,0,0.06172839506172839,0,0)" xlink:href="#m"/><use transform="matrix(0.06172839506172839,0,0,0.06172839506172839,6.172839506172839,0)" xlink:href="#n"/><use transform="matrix(0.06172839506172839,0,0,0.06172839506172839,18.51851851851852,0)" xlink:href="#o"/><use transform="matrix(0.06172839506172839,0,0,0.06172839506172839,29.62962962962963,0)" xlink:href="#m"/><use transform="matrix(0.06172839506172839,0,0,0.06172839506172839,35.80246913580247,0)" xlink:href="#s"/></g><path d="M155-56V0h-30v-56H8v-25l114-167h33v167h35v25h-35zm-30-156c-27 46-58 90-88 131h88v-131" id="t"/><use transform="matrix(0.05,0,0,0.05,0,0)" xlink:href="#t" id="i"/></defs></g></svg>